HIERARCHY
ROOT Hips
{
	OFFSET 0.000000 0.000000 0.000000 
	CHANNELS 6 Xposition Yposition Zposition Yrotation Zrotation Xrotation 
	JOINT Lumbar
	{
		OFFSET 0.000000 0.000000 0.000000 
		CHANNELS 3 Zrotation Xrotation Yrotation
		JOINT Neck
		{
			OFFSET 0.000000 0.445665 0.000000 
			CHANNELS 3 Zrotation Xrotation Yrotation
			End Site
			{
				OFFSET 0.000000 0.227535 0.000000 
			}
		}
		JOINT RightShoulder
		{
			OFFSET 0.019635 0.377685 0.194865 
			CHANNELS 3 Zrotation Xrotation Yrotation
			JOINT RightElbow
			{
				OFFSET 0.000000 -0.243375 0.000000 
				CHANNELS 2 Zrotation Yrotation
				JOINT RightWrist
				{
					OFFSET 0.000000 -0.264825 0.000000 
					CHANNELS 2 Zrotation Xrotation
					End Site
					{
						OFFSET 0.006600 -0.176220 0.000990 
					}
				}
			}
		}
		JOINT LeftShoulder
		{
			OFFSET 0.019635 0.377685 -0.194865 
			CHANNELS 3 Zrotation Xrotation Yrotation
			JOINT LeftElbow
			{
				OFFSET 0.000000 -0.243375 0.000000 
				CHANNELS 2 Zrotation Yrotation
				JOINT LeftWrist
				{
					OFFSET 0.000000 -0.264825 0.000000 
					CHANNELS 2 Zrotation Xrotation
					End Site
					{
						OFFSET 0.006600 -0.176220 -0.000990 
					}
				}
			}
		}
	}
	JOINT RightHip
	{
		OFFSET 0.052140 -0.069960 0.075570 
		CHANNELS 3 Zrotation Xrotation Yrotation
		JOINT RightKnee
		{
			OFFSET 0.000000 -0.402270 0.000000 
			CHANNELS 1 Zrotation
			JOINT RightAnkle
			{
				OFFSET 0.000000 -0.404085 0.000000 
				CHANNELS 3 Zrotation Xrotation Yrotation
				End Site
				{
					OFFSET 0.204105 -0.089430 0.008415 
				}
			}
		}
	}
	JOINT LeftHip
	{
		OFFSET 0.052140 -0.069960 -0.075570 
		CHANNELS 3 Zrotation Xrotation Yrotation
		JOINT LeftKnee
		{
			OFFSET 0.000000 -0.402270 0.000000 
			CHANNELS 1 Zrotation
			JOINT LeftAnkle
			{
				OFFSET 0.000000 -0.404085 0.000000 
				CHANNELS 3 Zrotation Xrotation Yrotation
				End Site
				{
					OFFSET 0.204105 -0.089430 -0.008415 
				}
			}
		}
	}
}
MOTION
Frames: 22
Frame Time: 0.02
0.42295 -0.13113 0.01232 -182.22177 -49.84225 -0.96538 8.04731 4.67419 0.97704 1.6527 -5.2703 -2.11908 28.9985 -21.35205 18.43215 77.1075 89.52726 -12.02805 -6.15303 13.40211 26.56393 -13.58454 81.51639 -82.27903 -9.05063 3.83773 101.13645 -9.91897 -6.42481 -63.96651 -7.28918 -2.00867 -3.24396 101.5969 12.53786 4.39317 -64.3277 -8.14749 0.5045 2.5583
0.41522 -0.12163 0.0097 -182.00435 -49.40844 -0.7761 8.60913 4.70332 0.80846 2.10836 -4.9659 -2.1191 30.7476 -21.05041 19.39161 78.69966 90.92106 -12.53471 -6.40508 14.77184 26.42852 -14.78973 82.90359 -83.38677 -9.65217 4.1442 98.91784 -9.90595 -6.94673 -62.11069 -7.31641 -1.98006 -3.23235 99.286 12.6526 5.01445 -62.26536 -8.2313 0.43896 2.53158
0.40705 -0.11246 0.0069 -181.73779 -48.68186 -0.55966 9.06288 4.74244 0.61898 2.56265 -4.65957 -2.11912 32.6082 -20.802 20.46421 79.84203 92.2413 -13.09962 -6.66192 16.39032 26.26895 -16.14206 84.25698 -84.76645 -10.423 4.53429 96.38879 -9.94196 -7.51873 -60.29601 -7.3359 -1.94878 -3.219 96.65001 12.75475 5.67109 -60.20794 -8.31258 0.37044 2.5035
0.39903 -0.10319 0.00418 -181.50155 -48.09382 -0.36001 9.5844 4.7776 0.43849 3.01615 -4.35885 -2.11914 34.41571 -20.51933 21.49158 81.11772 93.5372 -13.60333 -6.9103 17.91256 26.10255 -17.42891 85.57865 -85.97609 -11.08632 4.88584 94.00795 -9.93266 -8.03008 -58.46119 -7.35917 -1.92293 -3.20839 94.16806 12.85747 6.29402 -58.14857 -8.39366 0.30512 2.4768
0.3912 -0.09372 0.00148 -181.23074 -47.48091 -0.14135 10.03145 4.81084 0.26086 3.47863 -4.0363 -2.11916 36.24595 -20.27879 22.49709 82.68809 95.09192 -14.25621 -7.18379 19.37238 26.01186 -18.71447 87.10152 -87.38343 -11.8808 5.24454 91.59389 -10.01661 -8.69539 -56.62886 -7.38186 -1.87991 -3.18988 91.65556 12.98133 6.99171 -56.0834 -8.48081 0.23193 2.44686
0.38287 -0.08475 -0.00131 -181.02081 -46.85076 0.04424 10.60728 4.85003 0.0717 3.91817 -3.75945 -2.11918 38.04515 -19.96453 23.57201 83.54484 96.08246 -14.61038 -7.40388 21.01401 25.75874 -20.03416 88.19686 -88.44205 -12.43919 5.602 89.17722 -9.92194 -9.05878 -54.8043 -7.4035 -1.87123 -3.18703 89.13204 13.05887 7.5424 -54.03547 -8.55453 0.17444 2.42335
0.37327 -0.07693 -0.00436 -180.9882 -46.24675 0.12994 11.55293 4.90605 -0.14016 4.32809 -3.60941 -2.1192 39.79609 -19.41902 24.82647 82.48413 95.55813 -14.13631 -7.5105 23.14406 25.04886 -21.43246 88.11711 -88.48284 -12.33324 5.9904 86.82104 -9.29194 -8.52039 -52.96947 -7.42683 -1.96491 -3.23105 86.64561 13.00568 7.67242 -52.00721 -8.59225 0.16131 2.41793
0.36318 -0.06962 -0.0075 -181.01917 -45.63557 0.1817 12.63336 4.96716 -0.36368 4.70835 -3.50563 -2.11921 41.49787 -18.80071 26.14269 80.73422 94.46377 -13.35774 -7.55788 25.43752 24.17941 -22.855 87.61105 -88.16152 -11.97911 6.36528 84.47528 -8.48634 -7.68731 -51.14566 -7.44881 -2.09193 -3.29026 84.16246 12.90728 7.65375 -50.00184 -8.61634 0.16411 2.41903
0.3533 -0.06215 -0.0106 -181.02292 -45.02631 0.25024 13.65939 5.02402 -0.58461 5.08083 -3.38089 -2.11923 43.18021 -18.22434 27.42118 79.33355 93.60998 -12.71077 -7.60931 27.62667 23.39114 -24.2538 87.29818 -87.99764 -11.71885 6.70936 82.12994 -7.78095 -7.02544 -49.33077 -7.46959 -2.19925 -3.34043 81.68542 12.83361 7.70773 -48.00325 -8.64636 0.15936 2.4171
0.34345 -0.05439 -0.0137 -181.0178 -44.41163 0.31413 14.65301 5.08933 -0.79501 5.54466 -3.25597 -2.11924 45.04746 -17.60976 28.74811 77.75339 92.8249 -12.09296 -7.75509 29.95804 22.56265 -25.71501 86.97549 -87.87133 -11.54185 7.2089 79.75013 -6.99083 -6.2065 -47.45703 -7.4978 -2.32582 -3.39963 79.16276 12.74236 7.74376 -45.93046 -8.67764 0.15554 2.41534
0.33342 -0.04736 -0.01681 -181.04697 -43.81138 0.37917 15.74729 5.13824 -1.02961 5.80913 -3.14222 -2.11926 46.51077 -17.06016 29.98274 76.40394 91.77101 -11.34328 -7.69312 32.02047 21.7839 -27.04564 86.58628 -87.57977 -11.13345 7.38466 77.45094 -6.33521 -5.64582 -45.70981 -7.51025 -2.42005 -3.44354 76.74283 12.6765 7.77861 -44.01986 -8.70279 0.15393 2.41491
0.323 -0.04215 -0.01994 -181.15504 -43.24534 0.45636 17.08839 5.13958 -1.3302 5.54792 -3.04961 -2.11928 46.91884 -16.6787 30.98636 75.73623 90.03834 -10.28757 -7.04695 33.36881 21.15129 -28.04585 85.99954 -86.89717 -10.11853 6.63185 75.35434 -6.0905 -5.85446 -44.29393 -7.48025 -2.41867 -3.44264 74.58529 12.69787 7.87115 -42.53328 -8.71718 0.15183 2.41551
0.31242 -0.03767 -0.02308 -181.29567 -42.69692 0.53558 18.52586 5.12439 -1.65426 5.08399 -2.96621 -2.11931 46.91327 -16.37036 31.88732 75.34947 88.06897 -9.11309 -6.19826 34.42648 20.57998 -28.90571 85.38315 -86.06383 -8.88374 5.56015 73.34371 -5.98747 -6.33518 -43.00802 -7.43436 -2.38331 -3.42565 72.53693 12.74548 7.96349 -41.21309 -8.7254 0.15187 2.4174
0.30192 -0.03292 -0.0262 -181.42183 -42.14681 0.61327 19.91909 5.11745 -1.96617 4.70114 -2.87768 -2.11933 47.064 -16.04727 32.8089 74.91816 86.2586 -8.00257 -5.45887 35.57141 20.00058 -29.80618 84.85749 -85.31329 -7.76727 4.65902 71.30633 -5.8218 -6.70247 -41.67205 -7.39528 -2.36226 -3.41526 70.4531 12.7769 8.03886 -39.82798 -8.73454 0.15281 2.41943
0.29134 -0.02795 -0.02938 -181.54897 -41.56966 0.69239 21.32069 5.10763 -2.28479 4.36318 -2.79528 -2.11935 47.3438 -15.64343 33.84181 74.11328 84.21269 -6.83656 -4.64514 36.91276 19.33224 -30.80792 83.98928 -84.48956 -6.56449 3.64982 69.21567 -5.6433 -7.0194 -40.29708 -7.35781 -2.34696 -3.40828 68.30766 12.82388 8.17859 -38.39625 -8.75095 0.14666 2.41871
0.28092 -0.0236 -0.03245 -181.68076 -41.05304 0.76944 22.72366 5.09975 -2.59481 3.88485 -2.70106 -2.11938 47.26101 -15.42637 34.61864 74.16005 82.60668 -5.76535 -3.93814 37.77221 18.86566 -31.56196 83.83497 -83.78763 -5.4926 2.78935 67.2581 -5.52667 -7.50589 -39.03579 -7.31331 -2.31141 -3.39033 66.31872 12.84633 8.18928 -37.1037 -8.7512 0.15524 2.42382
0.27089 -0.02071 -0.03525 -181.81928 -40.70078 0.84061 24.12557 5.10175 -2.87525 3.06093 -2.57753 -2.11942 46.24518 -15.70449 34.70407 76.51225 82.29332 -4.95699 -3.5826 37.38469 18.94348 -31.69229 85.64456 -83.45642 -4.8367 2.42425 65.63263 -5.55383 -8.42815 -38.04202 -7.25277 -2.22596 -3.34462 64.71723 12.78571 7.81637 -36.13108 -8.7061 0.20703 2.44592
0.26107 -0.01842 -0.03795 -181.96087 -40.40862 0.90976 25.52082 5.10616 -3.14582 2.10423 -2.44077 -2.11946 44.88554 -16.16835 34.53668 79.71019 82.43018 -4.25503 -3.34043 36.51951 19.22263 -31.5733 88.17761 -83.25526 -4.32178 2.21842 64.14107 -5.63795 -9.50694 -37.16097 -7.18583 -2.12155 -3.28861 63.27328 12.7012 7.31873 -35.29757 -8.64545 0.27298 2.47362
0.25122 -0.0159 -0.04069 -182.09931 -40.08806 0.97976 26.90687 5.10911 -3.42137 1.21356 -2.30587 -2.1195 43.70465 -16.55002 34.49092 82.51092 82.35045 -3.52409 -3.04198 35.86325 19.40895 -31.55116 90.3924 -82.998 -3.7423 1.93568 62.59731 -5.69172 -10.49297 -36.23763 -7.12214 -2.02716 -3.23817 61.7685 12.63392 6.89777 -34.41518 -8.59344 0.33029 2.49793
0.24107 -0.01325 -0.04347 -182.24567 -39.77276 1.04997 28.35022 5.113 -3.69713 0.29214 -2.18783 -2.11954 42.4126 -16.92717 34.41343 85.37922 82.31188 -2.70652 -2.75653 35.2293 19.60293 -31.5932 92.56526 -82.72253 -3.15468 1.66189 61.01895 -5.76867 -11.57891 -35.28052 -7.05634 -1.9257 -3.18346 60.22037 12.54136 6.39523 -33.47612 -8.53452 0.39676 2.52575
0.23161 -0.01099 -0.04614 -182.37668 -39.46046 1.11941 29.66857 5.11577 -3.96794 -0.59454 -2.03266 -2.11958 41.27796 -17.35393 34.34306 88.29915 82.29868 -2.09689 -2.47353 34.44181 19.82798 -31.44469 94.99295 -82.51792 -2.62339 1.41022 59.54466 -5.80966 -12.49127 -34.41953 -6.99375 -1.83486 -3.13536 58.80069 12.49453 6.02935 -32.68842 -8.48644 0.44779 2.54771
0.22392 -0.00958 -0.04855 -182.45688 -39.14217 1.18565 30.66571 5.11454 -4.24333 -1.348 -1.76723 -2.1196 40.64578 -17.89754 34.35669 91.19611 82.23877 -2.03132 -2.17144 33.32634 20.08944 -30.82754 97.98832 -82.47836 -2.18895 1.1932 58.31361 -5.73164 -12.87742 -33.79018 -6.94056 -1.77854 -3.10848 57.67912 12.58801 6.10383 -32.26418 -8.47181 0.44975 2.55101
